<?xml version="1.0" encoding="UTF-8" standalone="no"?>
<!-- Created with Inkscape (http://www.inkscape.org/) -->

<svg
   xmlns:dc="http://purl.org/dc/elements/1.1/"
   xmlns:cc="http://creativecommons.org/ns#"
   xmlns:rdf="http://www.w3.org/1999/02/22-rdf-syntax-ns#"
   xmlns:svg="http://www.w3.org/2000/svg"
   xmlns="http://www.w3.org/2000/svg"
   xmlns:sodipodi="http://sodipodi.sourceforge.net/DTD/sodipodi-0.dtd"
   xmlns:inkscape="http://www.inkscape.org/namespaces/inkscape"
   width="42.333332mm"
   height="42.333332mm"
   viewBox="0 0 150 149.99999"
   id="svg5836"
   version="1.1"
   inkscape:version="0.91 r13725"
   sodipodi:docname="eye.svg">
  <defs
     id="defs5838" />
  <sodipodi:namedview
     id="base"
     pagecolor="#ffffff"
     bordercolor="#666666"
     borderopacity="1.0"
     inkscape:pageopacity="0.0"
     inkscape:pageshadow="2"
     inkscape:zoom="5.6"
     inkscape:cx="56.813208"
     inkscape:cy="88.363949"
     inkscape:document-units="px"
     inkscape:current-layer="layer1"
     showgrid="false"
     fit-margin-top="0"
     fit-margin-left="0"
     fit-margin-right="0"
     fit-margin-bottom="0"
     inkscape:window-width="1920"
     inkscape:window-height="1015"
     inkscape:window-x="0"
     inkscape:window-y="36"
     inkscape:window-maximized="1" />
  <metadata
     id="metadata5841">
    <rdf:RDF>
      <cc:Work
         rdf:about="">
        <dc:format>image/svg+xml</dc:format>
        <dc:type
           rdf:resource="http://purl.org/dc/dcmitype/StillImage" />
        <dc:title></dc:title>
      </cc:Work>
    </rdf:RDF>
  </metadata>
  <g
     inkscape:label="Layer 1"
     inkscape:groupmode="layer"
     id="layer1"
     transform="translate(-399.8173,-473.97346)">
    <g
       id="g6438">
      <circle
         r="74"
         cy="549.43359"
         cx="474.89288"
         id="path6422"
         style="fill:#ff6600;fill-opacity:1;fill-rule:evenodd;stroke:none;stroke-opacity:1" />
      <g
         transform="matrix(1.0908437,0,0,1.0908437,-36.320892,-56.684071)"
         id="g6424">
        <g
           id="g5477"
           transform="matrix(0.90906693,0,0,0.90906693,-1107.5667,-265.70909)">
          <path
             inkscape:connector-curvature="0"
             id="path3075-4"
             d="m 1734.3829,858.53369 c -23.8262,0 -43.1411,19.77341 -43.1411,44.16511 0,24.3918 19.3149,44.1652 43.1411,44.1652 23.8262,0 43.1411,-19.7734 43.1411,-44.1652 0,-24.3917 -19.3149,-44.16511 -43.1411,-44.16511 z m 0,8.833 c 19.061,0 34.5129,15.81871 34.5129,35.33211 0,19.5134 -15.4519,35.3321 -34.5129,35.3321 -19.0609,0 -34.5129,-15.8187 -34.5129,-35.3321 0,-19.5134 15.452,-35.33211 34.5129,-35.33211 z"
             style="fill:#000000" />
          <path
             inkscape:connector-curvature="0"
             id="path3110-1"
             d="m 1747.4306,844.03089 c -31.0394,0 -56.2017,25.7596 -56.2017,57.53571 0,1.9985 0.1008,3.973 0.295,5.919 l 6.2384,0 c -0.07,-1.1425 -0.1124,-2.2916 -0.1124,-3.4521 0,-30.0512 23.7984,-54.41451 53.1528,-54.41451 26.634,0 48.6889,20.0518 52.5486,46.21561 -2.8099,-29.08511 -26.7709,-51.80371 -55.9207,-51.80371 z"
             style="fill:#000000" />
          <path
             inkscape:connector-curvature="0"
             id="path3110-7-3"
             d="m 1678.4267,920.4735 c 15.5197,27.519 49.8921,36.9476 76.773,21.0596 1.6906,-0.9993 3.3105,-2.0759 4.8596,-3.2211 l -3.1192,-5.5308 c -0.9315,0.6332 -1.8824,1.2454 -2.8641,1.8257 -25.4217,15.0255 -57.9309,6.1079 -72.6081,-19.9171 -13.317,-23.6132 -7.3817,-53.19251 12.8216,-69.69641 -23.1995,17.0338 -30.4377,49.63641 -15.8628,75.48011 z"
             style="fill:#000000" />
          <path
             inkscape:connector-curvature="0"
             id="path3110-76-6"
             d="m 1777.4724,943.745 c 15.5197,-27.5189 6.3096,-62.7072 -20.5713,-78.59521 -1.6906,-0.9993 -3.4113,-1.8972 -5.1546,-2.6979 l -3.1192,5.5308 c 1.0014,0.5092 1.9947,1.0461 2.9765,1.6264 25.4216,15.02561 34.1324,48.30651 19.4553,74.33151 -13.317,23.6132 -41.3072,33.1408 -65.3702,23.4808 26.0094,12.0514 57.2086,2.1674 71.7835,-23.6764 z"
             style="fill:#000000" />
        </g>
        <path
           style="fill:#000000;fill-opacity:1;stroke-width:1;stroke-linecap:round;stroke-linejoin:round;stroke-miterlimit:4;stroke-dasharray:none"
           d="m 468.57143,486.46523 a 68.75412,68.75412 0 0 0 -68.75412,68.75412 68.75412,68.75412 0 0 0 68.75412,68.75412 68.75412,68.75412 0 0 0 68.75412,-68.75412 68.75412,68.75412 0 0 0 -68.75412,-68.75412 z m -1.39321,4.31223 a 64.456987,64.456987 0 0 1 65.82334,62.58371 l 0.0268,1.85818 a 64.456987,64.456987 0 0 1 -63.99201,64.45531 64.456987,64.456987 0 0 1 -64.91524,-63.52538 64.456987,64.456987 0 0 1 63.05707,-65.37182 z"
           id="path4365-6-2"
           inkscape:connector-curvature="0" />
        <g
           id="g3338"
           transform="matrix(0.09474512,0,0,0.09474512,437.78385,530.676)">
          <path
             inkscape:connector-curvature="0"
             id="path3398"
             d="m 33.676246,364.82 c 0.53628,-7.2677 1.7767,-14.482 5.0286,-21.276 9.4786,-19.803 33.963,-29.34 53.026,-19.284 15.333004,8.0885 22.563004,29.331 13.578004,45.149 -6.873004,12.099 -23.072004,18.235 -35.622004,10.228 -4.4328,-2.828 -7.6343,-7.2793 -8.9938,-12.286 -1.3595,-5.0063 -0.68452,-10.798 2.9392,-15.401 2.2364,-2.8407 5.4473,-4.7654 9.1114,-5.408 3.664,-0.64263 8.1708,0.40388 10.875,3.9972 1.7829,2.3692 1.91,4.5449 1.4108,7.1127 -0.24961,1.2839 -0.78116,2.8399 -2.3513,3.9972 -1.5702,1.1573 -4.2926,1.9424 -5.5844,0.58783 -1.1069,-1.1607 0.67477,-3.153 0.73029,-4.7559 0.0388,-0.83158 0.0772,-1.7317 -0.26004,-2.4745 -0.89679,-1.1463 -1.8493,-1.342 -3.4682,-1.0581 -1.6548,0.29023 -3.6474,1.4542 -4.5851,2.6452 l 0,0.0588 c -2.0224,2.5986 -2.3717,5.5943 -1.5284,8.6999 0.81645,3.0066 2.8568,5.919 5.4668,7.7006 l 0.29391,0.23513 c 8.5452,5.4516 18.484,0.70317 23.392,-7.9366 6.716204,-11.823 1.5113,-26.282 -10.285,-32.505 -15.078,-7.9537 -35.744,1.451 -40.36,17.085 -4.566,15.464 -2.8715,30.938 -0.27385,37.511 l -10.609,0.073 c -2.5579,-12.089 -1.9287,-15.035 -1.9287,-22.696 z" />
          <path
             style="fill:#ffffff"
             inkscape:connector-curvature="0"
             id="path3400"
             d="m 471.54625,260.66 c 17.668,-13.594 26.097,-35.697 29.523,-57.078 1.4645,-9.3951 1.9746,-19.069 0.14154,-28.452 14.1,0.29894 25.825,9.3358 36.433,17.663 18.603,15.53 35.228,33.824 47.215,54.967 3.6321,6.1751 -5.3435,4.6337 -8.8069,5.9233 -30.729,5.8422 -62.032,11.753 -93.438,8.9164 -3.7237,-0.42453 -7.428,-1.0454 -11.069,-1.9403 z" />
          <path
             style="fill:#ffffff"
             inkscape:connector-curvature="0"
             id="path3402"
             d="m 288.00625,210.87 c 10.816,-13.823 26.523,-22.816 42.335,-29.821 12.478,-5.3611 25.719,-9.195 39.307,-10.133 3.6006,-0.49169 7.2012,-0.98339 10.802,-1.4751 -5.8862,13.4 -9.3342,29.076 -3.9503,43.223 5.7766,15.238 17.145,27.376 24.994,41.49 4.6019,5.2258 -5.3217,2.7679 -8.4635,3.5354 -25.451,-0.0247 -51.385,-4.4738 -74.255,-16.006 -13.053,-6.7549 -25.175,-16.863 -30.769,-30.813 z" />
          <path
             style="fill:#000000"
             inkscape:connector-curvature="0"
             id="path3404"
             d="m 495.40625,157 a 70.231,70.231 0 0 1 14.44,42.81 70.235,70.235 0 0 1 -140.47,0 70.231,70.231 0 0 1 14.28,-42.81 l 111.75,0 z" />
          <path
             style="stroke:#000000"
             inkscape:connector-curvature="0"
             id="path3406"
             d="m 513.20625,465.53 c 6.7333,0 8.7137,-5.4462 12.181,-25.899 2.4479,-14.774 7.1068,-28.463 10.502,-43.043 3.0219,-13.117 5.6425,-20.332 9.6694,-26.618 6.5526,-10.229 6.3011,-20.921 -0.71691,-30.481 -6.33,-8.6232 -6.827,-11.121 -6.5471,-32.901 0.13783,-10.725 0.56403,-21.286 0.94711,-23.468 0.88077,-5.0179 4.6148,-7.6923 13.904,-9.9586 8.4827,-2.0695 16.525,-2.2933 41.967,-1.1681 18.144,0.80245 20.457,0.72323 22.75,-0.77901 5.627,-3.687 2.9527,-8.8405 -12.261,-23.626 -15.69,-15.249 -23.876,-24.688 -38.811,-44.75 -26.839,-36.053 -30.927,-40.83 -57.501,-49.189 -19.575,-6.1582 -26.691,-9.0119 -62.031,-10.06 -24.654,-0.7309 -38.767,2.5963 -45.357,3.3466 -25.219,2.8716 -66.247,14.877 -91.933,26.083 -13.581,5.9249 -14.042,6.1723 -30.115,16.152 -11.981,7.4391 -18.733,10.459 -35.44,15.034 -34.886,9.553 -56.753,7.7583 -92,10.378 -9.2579,0.68808 -49.298,3.5149 -74.500004,4.4784 -30.689,1.1732 -35.835,-2.0376 -38.423,0.54994 -2.0315,2.0315 -0.5636,8.1815 -0.6024,14.306 -0.0237,3.7378 0.18399,7.6642 0.48569,11.602 8.1923,-1.424 8.0353,-1.3676 26.54,-2.9165 1.6808,-0.14069 16.718,-1.6695 44.500004,-4.1726 11.867,-1.0692 70.326,-2.8448 105.5,-3.9248 16.997,-0.52189 34.357,-4.7228 51,-1.2347 5.7624,1.2076 -2.387,-1.1161 16,7.4812 36.313,14.051 55.853,23.79 104.5,32.83 30.774,4.5201 33.208,4.9745 36.376,7.2909 1.7456,1.2764 1.662,1.6171 -1.6767,6.8363 -3.5642,5.5717 -14.275,15.81 -29.699,28.389 -51.619,43.564 -115.05,77.431 -162.89,98.598 -22.221,9.5122 -37.55,14.655 -50.108,16.811 -61.892,13.654 -134.260004,-9.4938 -136.110004,-56.959 -0.0489,-1.256 -0.49928,-6.001 0.1398,-12.079 0.44539,-4.2357 0.89625,-7.3216 2.2932,-11.095 3.9795,-10.75 12.413,-20.407 28.672,-21.755 11.746,0.022 20.375,6.1561 23.95,16.17 4.562204,12.78 -1.3185,27.071 -14.023,29.565 -6.6403,1.3038 -11.222,-0.5256 -14.271,-4.4679 -3.3424,-4.3221 -3.72,-12.026 -1.3559,-15.634 2.2757,-3.4732 7.2459,-5.2754 10.824,-3.9248 3.6125,1.3636 4.9933,0.36555 0.6538,-3.1839 -0.38036,-0.24867 -0.77844,-0.4586 -1.191,-0.63136 -6.6675,-2.7918 -17.127,4.1226 -17.913,14.135 -0.7119,11.495 7.7045,20.279 19.249,20.94 6.5659,0.37574 14.594,-1.9665 20.026004,-7.8035 13.425,-14.428 9.1712,-34.885 -2.958604,-45.762 -4.6131,-4.1366 -7.7535,-6.0583 -14.065,-7.4773 -19.37,-4.3554 -37.69,4.5134 -45.528,24.301 -3.5645,8.9992 -3.7675,16.201 -3.8515,23.221 -0.70438,58.895 65.742,87.202 131.950004,82.517 28.009,-2.4123 46.229,-6.8095 80.495,-20.915 36.58,-12.09 143.44,-68.32 207.96,-120.33 18.846,-15.317 30.511,-22.813 33.055,-21.24 0.61585,0.38062 0.98989,11.992 0.99221,30.802 0.004,28.758 0.1019,30.352 2.0717,33.583 3.2793,5.3791 4.935,17.725 5.9822,44.608 1.6327,41.914 2.675,60.915 3.4439,62.778 1.3963,3.383 7.0306,4.6642 13.289,4.6642 z m -221.62,-252.27 c -0.41803,-2.1707 4.6044,-8.6243 11.231,-13.08 10.396,-6.9893 22.385,-11.512 34.092,-15.96 71.934,-23.518 145.08,-20.065 174.03,-4.962 10.593,5.1512 14.126,7.777 22.813,15.582 4.1291,3.7102 9.5939,9.7305 12.144,13.379 5.133,7.3428 10.014,13.339 19.014,23.362 9.3026,10.359 14.5,16.774 14.5,17.897 0,1.5721 -7.8962,3.1488 -17.5,3.5809 -81.15,10.292 -230.44,14.198 -270.32,-39.799 z M 67.406246,143.909 c 16.558,-0.50003 42.467004,-2.0158 63.500004,-4.8954 19.525,-2.6732 39.047,-6.067 58,-11.467 17.982,-5.123 35.124,-12.85 52.5,-19.754 7.7243,-3.0694 15.32,-6.4533 23,-9.6318 8.319,-3.4429 16.53,-7.1723 25,-10.224 15.523,-5.5928 30.986,-11.946 47.239,-14.789 41.988,-7.3464 85.261,-8.7793 127.76,-5.4986 23.554,1.8182 46.695,7.7124 69.5,13.878 17.863,4.8293 35.019,11.972 52.5,18.041 5.069,1.761 10.039,6.841 15.177,5.321 5.396,-1.6 10.73,-7.749 10.317,-13.361 -0.434,-5.884 -7.835,-9.014 -12.753,-12.272 -16.823,-11.146 -36.498,-17.485 -55.661,-23.803 -19.219,-6.3349 -38.923,-12.127 -59.072,-14.001 -54.326,-5.0532 -110.09,-3.4301 -163.5,7.7269 -28.29,5.9098 -53.945,20.759 -81,30.92 -31.437,11.806 -61.76,27.444 -94.5,34.909 -33.045,7.534 -83.745004,9.6292 -101.220004,9.5911 -6.5425,-0.0143 -6.7685,0.0708 -8.3595,3.1475 -1.8515,3.5805 -3.1256,14.296 -1.7926,15.077 1.3395,0.78418 21.593,1.4453 33.376,1.0894 z" />
        </g>
      </g>
    </g>
  </g>
</svg>
